<?xml version="1.0" encoding="UTF-8"?>
<svg version="1.1" xmlns="http://www.w3.org/2000/svg" width="32" height="32">
<path d="M0 0 C4.47915328 -0.02886338 8.95828291 -0.04675187 13.4375 -0.0625 C14.71689453 -0.07087891 15.99628906 -0.07925781 17.31445312 -0.08789062 C19.13686523 -0.09272461 19.13686523 -0.09272461 20.99609375 -0.09765625 C22.12200928 -0.10289307 23.2479248 -0.10812988 24.40795898 -0.11352539 C27 0 27 0 28 1 C28.09971786 2.91458282 28.13080589 4.83282317 28.1328125 6.75 C28.13474609 8.49796875 28.13474609 8.49796875 28.13671875 10.28125 C28.13285156 11.5084375 28.12898438 12.735625 28.125 14 C28.13080078 15.84078125 28.13080078 15.84078125 28.13671875 17.71875 C28.13542969 18.8840625 28.13414063 20.049375 28.1328125 21.25 C28.13168457 22.32765625 28.13055664 23.4053125 28.12939453 24.515625 C28 27 28 27 27 28 C25.08541718 28.09971786 23.16717683 28.13080589 21.25 28.1328125 C20.0846875 28.13410156 18.919375 28.13539062 17.71875 28.13671875 C16.4915625 28.13285156 15.264375 28.12898438 14 28.125 C12.15921875 28.13080078 12.15921875 28.13080078 10.28125 28.13671875 C9.1159375 28.13542969 7.950625 28.13414063 6.75 28.1328125 C5.67234375 28.13168457 4.5946875 28.13055664 3.484375 28.12939453 C1 28 1 28 0 27 C-0.08758003 25.00035018 -0.10696576 22.9976389 -0.09765625 20.99609375 C-0.09443359 19.78115234 -0.09121094 18.56621094 -0.08789062 17.31445312 C-0.07951172 16.03505859 -0.07113281 14.75566406 -0.0625 13.4375 C-0.05798828 12.15423828 -0.05347656 10.87097656 -0.04882812 9.54882812 C-0.03699545 6.36583978 -0.02051068 3.18294238 0 0 Z " fill="#CDBFFC" transform="translate(2,2)"/>
<path d="M0 0 C4.47915328 -0.02886338 8.95828291 -0.04675187 13.4375 -0.0625 C14.71689453 -0.07087891 15.99628906 -0.07925781 17.31445312 -0.08789062 C19.13686523 -0.09272461 19.13686523 -0.09272461 20.99609375 -0.09765625 C22.12200928 -0.10289307 23.2479248 -0.10812988 24.40795898 -0.11352539 C27 0 27 0 28 1 C28.09971786 2.91458282 28.13080589 4.83282317 28.1328125 6.75 C28.13474609 8.49796875 28.13474609 8.49796875 28.13671875 10.28125 C28.13285156 11.5084375 28.12898438 12.735625 28.125 14 C28.13080078 15.84078125 28.13080078 15.84078125 28.13671875 17.71875 C28.13542969 18.8840625 28.13414063 20.049375 28.1328125 21.25 C28.13168457 22.32765625 28.13055664 23.4053125 28.12939453 24.515625 C28 27 28 27 27 28 C25.08541718 28.09971786 23.16717683 28.13080589 21.25 28.1328125 C20.0846875 28.13410156 18.919375 28.13539062 17.71875 28.13671875 C16.4915625 28.13285156 15.264375 28.12898438 14 28.125 C12.15921875 28.13080078 12.15921875 28.13080078 10.28125 28.13671875 C9.1159375 28.13542969 7.950625 28.13414063 6.75 28.1328125 C5.67234375 28.13168457 4.5946875 28.13055664 3.484375 28.12939453 C1 28 1 28 0 27 C-0.08758003 25.00035018 -0.10696576 22.9976389 -0.09765625 20.99609375 C-0.09443359 19.78115234 -0.09121094 18.56621094 -0.08789062 17.31445312 C-0.07951172 16.03505859 -0.07113281 14.75566406 -0.0625 13.4375 C-0.05798828 12.15423828 -0.05347656 10.87097656 -0.04882812 9.54882812 C-0.03699545 6.36583978 -0.02051068 3.18294238 0 0 Z M3 3 C3 10.26 3 17.52 3 25 C10.26 25 17.52 25 25 25 C25 17.74 25 10.48 25 3 C17.74 3 10.48 3 3 3 Z " fill="#08080A" transform="translate(2,2)"/>
<path d="M0 0 C8.91 0 17.82 0 27 0 C26.67 8.25 26.34 16.5 26 25 C25.67 25 25.34 25 25 25 C25 17.74 25 10.48 25 3 C17.74 3 10.48 3 3 3 C3 10.26 3 17.52 3 25 C2.67 25 2.34 25 2 25 C2 17.41 2 9.82 2 2 C1.34 2 0.68 2 0 2 C0 1.34 0 0.68 0 0 Z " fill="#1E1D25" transform="translate(2,2)"/>
</svg>
